<?xml version="1.0" encoding="UTF-8"?>
<svg xmlns="http://www.w3.org/2000/svg"
     xmlns:xlink="http://www.w3.org/1999/xlink"
     version="1.2"
     width="141.42mm" height="100mm" viewBox="0 0 141.42 100"
     stroke="none"
     fill="#000000"
     stroke-width="0.3"
     font-size="3.88"
>
<defs>
  <marker id="arrow" markerWidth="15" markerHeight="7" refX="5" refY="3.5" orient="auto" markerUnits="strokeWidth">
    <path d="M0,0 L15,3.5 L0,7 z" stroke="context-stroke" fill="context-stroke"/>
  </marker>
</defs>
<g stroke-width="1.13" fill="#000000" fill-opacity="0.000" stroke="#D3D3D3" id="img-07ff23b4-1">
  <g transform="translate(100.15,46.13)">
    <path fill="none" d="M-8.16,-33.91 L8.16,33.91 " class="primitive"/>
  </g>
  <g transform="translate(110.35,25.28)">
    <path fill="none" d="M-15.8,-13.88 L15.8,13.88 " class="primitive"/>
  </g>
  <g transform="translate(80.91,29.18)">
    <path fill="none" d="M8.33,-17.13 L-8.33,17.13 " class="primitive"/>
  </g>
  <g transform="translate(70.67,50)">
    <path fill="none" d="M18.56,-37.95 L-18.56,37.95 " class="primitive"/>
  </g>
  <g transform="translate(80.9,29.17)">
    <path fill="none" d="M43.53,11.66 L-43.53,-11.66 " class="primitive"/>
  </g>
  <g transform="translate(70.71,49.99)">
    <path fill="none" d="M53.45,-7.04 L-53.45,7.04 " class="primitive"/>
  </g>
  <g transform="translate(100.2,46.13)">
    <path fill="none" d="M23.96,-3.18 L-23.96,3.18 " class="primitive"/>
  </g>
  <g transform="translate(51.46,33.07)">
    <path fill="none" d="M15.81,13.89 L-15.81,-13.89 " class="primitive"/>
  </g>
  <g transform="translate(41.27,53.89)">
    <path fill="none" d="M24.01,-3.14 L-24.01,3.14 " class="primitive"/>
  </g>
</g>
<g stroke-width="1.13" stroke="#D3D3D3" id="img-07ff23b4-2">
  <g transform="translate(107.7,77.46)">
    <path fill="none" d="M1.68,-1.53 L0.62,2.57 -2.3,-1.05 " class="primitive"/>
  </g>
  <g transform="translate(123.83,37.12)">
    <path fill="none" d="M0.41,-1.91 L2.31,2.03 -2.73,-0.12 " class="primitive"/>
  </g>
  <g transform="translate(73.77,43.84)">
    <path fill="none" d="M2.51,-0.77 L-1.2,2.47 -1.31,-1.7 " class="primitive"/>
  </g>
  <g transform="translate(53.32,85.48)">
    <path fill="none" d="M2.51,-0.77 L-1.21,2.47 -1.3,-1.7 " class="primitive"/>
  </g>
  <g transform="translate(40.82,18.43)">
    <path fill="none" d="M1.01,1.79 L-3.45,-0.92 2.44,-0.87 " class="primitive"/>
  </g>
  <g transform="translate(20.89,56.55)">
    <path fill="none" d="M2.18,1.16 L-3.63,0.48 1.45,-1.64 " class="primitive"/>
  </g>
  <g transform="translate(79.86,48.83)">
    <path fill="none" d="M2.19,1.16 L-3.63,0.48 1.44,-1.64 " class="primitive"/>
  </g>
  <g transform="translate(37.97,21.22)">
    <path fill="none" d="M-0.41,1.91 L-2.31,-2.03 2.73,0.12 " class="primitive"/>
  </g>
  <g transform="translate(20.89,56.56)">
    <path fill="none" d="M2.18,1.16 L-3.63,0.48 1.45,-1.64 " class="primitive"/>
  </g>
</g>
<g font-size="4" stroke="#000000" stroke-opacity="0.000" fill="#000000" id="img-07ff23b4-3">
</g>
<g stroke-width="0" stroke="#000000" stroke-opacity="0.000" fill="#40E0D0" id="img-07ff23b4-4">
  <g transform="translate(91.05,8.33)">
    <circle cx="0" cy="0" r="5.35" class="primitive"/>
  </g>
  <g transform="translate(32.16,16.12)">
    <circle cx="0" cy="0" r="5.35" class="primitive"/>
  </g>
  <g transform="translate(11.79,57.75)">
    <circle cx="0" cy="0" r="5.35" class="primitive"/>
  </g>
  <g transform="translate(109.25,83.92)">
    <circle cx="0" cy="0" r="5.35" class="primitive"/>
  </g>
  <g transform="translate(129.64,42.22)">
    <circle cx="0" cy="0" r="5.35" class="primitive"/>
  </g>
  <g transform="translate(70.76,50.03)">
    <circle cx="0" cy="0" r="5.35" class="primitive"/>
  </g>
  <g transform="translate(50.29,91.67)">
    <circle cx="0" cy="0" r="5.35" class="primitive"/>
  </g>
</g>
<g font-size="4" stroke="#000000" stroke-opacity="0.000" fill="#000000" id="img-07ff23b4-5">
  <g transform="translate(91.05,8.33)">
    <g class="primitive">
      <text text-anchor="middle" dy="0.35em">ToGPU()</text>
    </g>
  </g>
  <g transform="translate(32.16,16.12)">
    <g class="primitive">
      <text text-anchor="middle" dy="0.35em">ProgressPrinter()</text>
    </g>
  </g>
  <g transform="translate(11.79,57.75)">
    <g class="primitive">
      <text text-anchor="middle" dy="0.35em">MetricsPrinter()</text>
    </g>
  </g>
  <g transform="translate(109.25,83.92)">
    <g class="primitive">
      <text text-anchor="middle" dy="0.35em">StopOnNaNLoss()</text>
    </g>
  </g>
  <g transform="translate(129.64,42.22)">
    <g class="primitive">
      <text text-anchor="middle" dy="0.35em">Recorder()</text>
    </g>
  </g>
  <g transform="translate(70.76,50.03)">
    <g class="primitive">
      <text text-anchor="middle" dy="0.35em">Metrics(Loss())</text>
    </g>
  </g>
  <g transform="translate(50.29,91.67)">
    <g class="primitive">
      <text text-anchor="middle" dy="0.35em">SanityCheck(FluxTraining.Check[Check("Has training data iterator"), Check("Has validation data iterator"), Check("Data iterators iterate over tuples"), Check("Model and loss function compatible with data")])</text>
    </g>
  </g>
</g>
</svg>
