<?xml version="1.0" encoding="UTF-8"?>
<svg xmlns="http://www.w3.org/2000/svg"
     xmlns:xlink="http://www.w3.org/1999/xlink"
     version="1.2"
     width="141.42mm" height="100mm" viewBox="0 0 141.42 100"
     stroke="none"
     fill="#000000"
     stroke-width="0.3"
     font-size="3.88"
>
<defs>
  <marker id="arrow" markerWidth="15" markerHeight="7" refX="5" refY="3.5" orient="auto" markerUnits="strokeWidth">
    <path d="M0,0 L15,3.5 L0,7 z" stroke="context-stroke" fill="context-stroke"/>
  </marker>
</defs>
<g stroke-width="1.13" fill="#000000" fill-opacity="0.000" stroke="#D3D3D3" id="img-7d5aed29-1">
  <g transform="translate(75.32,70.84)">
    <path fill="none" d="M-48.81,4.77 L48.81,-4.77 " class="primitive"/>
  </g>
  <g transform="translate(16.39,55.3)">
    <path fill="none" d="M3.75,16.96 L-3.75,-16.96 " class="primitive"/>
  </g>
  <g transform="translate(70.71,50.02)">
    <path fill="none" d="M-45.25,23.78 L45.25,-23.78 " class="primitive"/>
  </g>
  <g transform="translate(41.27,42.24)">
    <path fill="none" d="M-18.11,30.28 L18.11,-30.28 " class="primitive"/>
  </g>
  <g transform="translate(41.21,42.23)">
    <path fill="none" d="M-24.21,-6.4 L24.21,6.4 " class="primitive"/>
  </g>
  <g transform="translate(45.87,63.06)">
    <path fill="none" d="M-30.5,-25.6 L30.5,25.6 " class="primitive"/>
  </g>
  <g transform="translate(66.11,29.17)">
    <path fill="none" d="M-48.81,4.75 L48.81,-4.75 " class="primitive"/>
  </g>
  <g transform="translate(95.54,36.95)">
    <path fill="none" d="M20.42,-10.72 L-20.42,10.72 " class="primitive"/>
  </g>
  <g transform="translate(100.19,57.78)">
    <path fill="none" d="M18.07,-30.26 L-18.07,30.26 " class="primitive"/>
  </g>
</g>
<g stroke-width="1.13" stroke="#D3D3D3" id="img-7d5aed29-2">
  <g transform="translate(120.46,66.42)">
    <path fill="none" d="M-2.1,-1.23 L3.66,-0.36 -1.55,1.59 " class="primitive"/>
  </g>
  <g transform="translate(13.21,40.92)">
    <path fill="none" d="M-1.71,1.51 L-0.57,-2.58 2.28,1.07 " class="primitive"/>
  </g>
  <g transform="translate(113,27.79)">
    <path fill="none" d="M-2.68,-0.37 L2.96,-1.56 -0.28,1.92 " class="primitive"/>
  </g>
  <g transform="translate(57.94,14.36)">
    <path fill="none" d="M-2.58,0.65 L1.44,-2.4 1.14,1.76 " class="primitive"/>
  </g>
  <g transform="translate(61.97,47.72)">
    <path fill="none" d="M-1.02,-1.79 L3.46,0.91 -2.43,0.88 " class="primitive"/>
  </g>
  <g transform="translate(73.99,86.66)">
    <path fill="none" d="M0.35,-1.92 L2.38,2 -2.73,-0.08 " class="primitive"/>
  </g>
  <g transform="translate(111.26,24.78)">
    <path fill="none" d="M-2.1,-1.23 L3.66,-0.36 -1.55,1.59 " class="primitive"/>
  </g>
  <g transform="translate(78.08,46.11)">
    <path fill="none" d="M2.68,0.37 L-2.96,1.56 0.28,-1.92 " class="primitive"/>
  </g>
  <g transform="translate(83.56,85.64)">
    <path fill="none" d="M2.57,-0.65 L-1.44,2.4 -1.14,-1.76 " class="primitive"/>
  </g>
</g>
<g font-size="4" stroke="#000000" stroke-opacity="0.000" fill="#000000" id="img-7d5aed29-3">
</g>
<g stroke-width="0" stroke="#000000" stroke-opacity="0.000" fill="#40E0D0" id="img-7d5aed29-4">
  <g transform="translate(20.99,76.15)">
    <circle cx="0" cy="0" r="5.35" class="primitive"/>
  </g>
  <g transform="translate(70.64,50.01)">
    <circle cx="0" cy="0" r="5.35" class="primitive"/>
  </g>
  <g transform="translate(79.95,91.67)">
    <circle cx="0" cy="0" r="5.35" class="primitive"/>
  </g>
  <g transform="translate(129.64,65.53)">
    <circle cx="0" cy="0" r="5.35" class="primitive"/>
  </g>
  <g transform="translate(11.79,34.45)">
    <circle cx="0" cy="0" r="5.35" class="primitive"/>
  </g>
  <g transform="translate(120.43,23.89)">
    <circle cx="0" cy="0" r="5.35" class="primitive"/>
  </g>
  <g transform="translate(61.54,8.33)">
    <circle cx="0" cy="0" r="5.35" class="primitive"/>
  </g>
</g>
<g font-size="4" stroke="#000000" stroke-opacity="0.000" fill="#000000" id="img-7d5aed29-5">
  <g transform="translate(20.99,76.15)">
    <g class="primitive">
      <text text-anchor="middle" dy="0.35em">ToGPU()</text>
    </g>
  </g>
  <g transform="translate(70.64,50.01)">
    <g class="primitive">
      <text text-anchor="middle" dy="0.35em">ProgressPrinter()</text>
    </g>
  </g>
  <g transform="translate(79.95,91.67)">
    <g class="primitive">
      <text text-anchor="middle" dy="0.35em">MetricsPrinter()</text>
    </g>
  </g>
  <g transform="translate(129.64,65.53)">
    <g class="primitive">
      <text text-anchor="middle" dy="0.35em">StopOnNaNLoss()</text>
    </g>
  </g>
  <g transform="translate(11.79,34.45)">
    <g class="primitive">
      <text text-anchor="middle" dy="0.35em">Recorder()</text>
    </g>
  </g>
  <g transform="translate(120.43,23.89)">
    <g class="primitive">
      <text text-anchor="middle" dy="0.35em">Metrics(Loss())</text>
    </g>
  </g>
  <g transform="translate(61.54,8.33)">
    <g class="primitive">
      <text text-anchor="middle" dy="0.35em">SanityCheck(FluxTraining.Check[Check("Has training data iterator"), Check("Has validation data iterator"), Check("Data iterators iterate over tuples"), Check("Model and loss function compatible with data")])</text>
    </g>
  </g>
</g>
</svg>
