<?xml version="1.0" encoding="UTF-8"?>
<svg xmlns="http://www.w3.org/2000/svg"
     xmlns:xlink="http://www.w3.org/1999/xlink"
     version="1.2"
     width="141.42mm" height="100mm" viewBox="0 0 141.42 100"
     stroke="none"
     fill="#000000"
     stroke-width="0.3"
     font-size="3.88"
>
<defs>
  <marker id="arrow" markerWidth="15" markerHeight="7" refX="5" refY="3.5" orient="auto" markerUnits="strokeWidth">
    <path d="M0,0 L15,3.5 L0,7 z" stroke="context-stroke" fill="context-stroke"/>
  </marker>
</defs>
<g stroke-width="1.13" fill="#000000" fill-opacity="0.000" stroke="#D3D3D3" id="img-4ab6a545-1">
  <g transform="translate(100.15,58.81)">
    <path fill="none" d="M21.23,-29.35 L-21.23,29.35 " class="primitive"/>
  </g>
  <g transform="translate(94.43,17.15)">
    <path fill="none" d="M24.35,7.28 L-24.35,-7.28 " class="primitive"/>
  </g>
  <g transform="translate(97.34,37.98)">
    <path fill="none" d="M21.87,-9.9 L-21.87,9.9 " class="primitive"/>
  </g>
  <g transform="translate(126.77,46.81)">
    <path fill="none" d="M-2.33,-16.93 L2.33,16.93 " class="primitive"/>
  </g>
  <g transform="translate(38.37,20.35)">
    <path fill="none" d="M21.89,-9.89 L-21.89,9.89 " class="primitive"/>
  </g>
  <g transform="translate(41.22,41.17)">
    <path fill="none" d="M21.2,-29.33 L-21.2,29.33 " class="primitive"/>
  </g>
  <g transform="translate(67.86,29.17)">
    <path fill="none" d="M-2.37,-16.92 L2.37,16.92 " class="primitive"/>
  </g>
  <g transform="translate(41.28,41.18)">
    <path fill="none" d="M24.37,7.29 L-24.37,-7.29 " class="primitive"/>
  </g>
  <g transform="translate(44.13,62)">
    <path fill="none" d="M21.95,-9.88 L-21.95,9.88 " class="primitive"/>
  </g>
</g>
<g stroke-width="1.13" stroke="#D3D3D3" id="img-4ab6a545-2">
  <g transform="translate(80.6,85.84)">
    <path fill="none" d="M2.63,-0.51 L-1.68,2.32 -0.95,-1.81 " class="primitive"/>
  </g>
  <g transform="translate(73.48,10.88)">
    <path fill="none" d="M0.92,1.82 L-3.4,-1.02 2.48,-0.8 " class="primitive"/>
  </g>
  <g transform="translate(78.58,46.47)">
    <path fill="none" d="M2.64,0.5 L-3.11,1.41 0.47,-1.9 " class="primitive"/>
  </g>
  <g transform="translate(128.74,61.14)">
    <path fill="none" d="M1.83,-1.44 L0.36,2.6 -2.18,-1.16 " class="primitive"/>
  </g>
  <g transform="translate(19.59,28.83)">
    <path fill="none" d="M2.64,0.5 L-3.11,1.41 0.47,-1.9 " class="primitive"/>
  </g>
  <g transform="translate(21.7,68.17)">
    <path fill="none" d="M2.63,-0.51 L-1.68,2.32 -0.95,-1.81 " class="primitive"/>
  </g>
  <g transform="translate(69.87,43.49)">
    <path fill="none" d="M1.82,-1.44 L0.36,2.6 -2.19,-1.16 " class="primitive"/>
  </g>
  <g transform="translate(20.31,34.91)">
    <path fill="none" d="M0.91,1.82 L-3.4,-1.02 2.48,-0.8 " class="primitive"/>
  </g>
  <g transform="translate(25.3,70.48)">
    <path fill="none" d="M2.64,0.5 L-3.11,1.4 0.47,-1.9 " class="primitive"/>
  </g>
</g>
<g font-size="4" stroke="#000000" stroke-opacity="0.000" fill="#000000" id="img-4ab6a545-3">
</g>
<g stroke-width="0" stroke="#000000" stroke-opacity="0.000" fill="#40E0D0" id="img-4ab6a545-4">
  <g transform="translate(123.91,25.96)">
    <circle cx="0" cy="0" r="5.35" class="primitive"/>
  </g>
  <g transform="translate(11.79,32.36)">
    <circle cx="0" cy="0" r="5.35" class="primitive"/>
  </g>
  <g transform="translate(17.49,74)">
    <circle cx="0" cy="0" r="5.35" class="primitive"/>
  </g>
  <g transform="translate(76.38,91.67)">
    <circle cx="0" cy="0" r="5.35" class="primitive"/>
  </g>
  <g transform="translate(64.95,8.33)">
    <circle cx="0" cy="0" r="5.35" class="primitive"/>
  </g>
  <g transform="translate(70.78,50)">
    <circle cx="0" cy="0" r="5.35" class="primitive"/>
  </g>
  <g transform="translate(129.64,67.65)">
    <circle cx="0" cy="0" r="5.35" class="primitive"/>
  </g>
</g>
<g font-size="4" stroke="#000000" stroke-opacity="0.000" fill="#000000" id="img-4ab6a545-5">
  <g transform="translate(123.91,25.96)">
    <g class="primitive">
      <text text-anchor="middle" dy="0.35em">ToGPU()</text>
    </g>
  </g>
  <g transform="translate(11.79,32.36)">
    <g class="primitive">
      <text text-anchor="middle" dy="0.35em">ProgressPrinter()</text>
    </g>
  </g>
  <g transform="translate(17.49,74)">
    <g class="primitive">
      <text text-anchor="middle" dy="0.35em">MetricsPrinter()</text>
    </g>
  </g>
  <g transform="translate(76.38,91.67)">
    <g class="primitive">
      <text text-anchor="middle" dy="0.35em">StopOnNaNLoss()</text>
    </g>
  </g>
  <g transform="translate(64.95,8.33)">
    <g class="primitive">
      <text text-anchor="middle" dy="0.35em">Recorder()</text>
    </g>
  </g>
  <g transform="translate(70.78,50)">
    <g class="primitive">
      <text text-anchor="middle" dy="0.35em">Metrics(Loss())</text>
    </g>
  </g>
  <g transform="translate(129.64,67.65)">
    <g class="primitive">
      <text text-anchor="middle" dy="0.35em">SanityCheck(FluxTraining.Check[Check("Has training data iterator"), Check("Has validation data iterator"), Check("Data iterators iterate over tuples"), Check("Model and loss function compatible with data")])</text>
    </g>
  </g>
</g>
</svg>
