<?xml version="1.0" encoding="UTF-8"?>
<svg xmlns="http://www.w3.org/2000/svg"
     xmlns:xlink="http://www.w3.org/1999/xlink"
     version="1.2"
     width="141.42mm" height="100mm" viewBox="0 0 141.42 100"
     stroke="none"
     fill="#000000"
     stroke-width="0.3"
     font-size="3.88"
>
<defs>
  <marker id="arrow" markerWidth="15" markerHeight="7" refX="5" refY="3.5" orient="auto" markerUnits="strokeWidth">
    <path d="M0,0 L15,3.5 L0,7 z" stroke="context-stroke" fill="context-stroke"/>
  </marker>
</defs>
<g stroke-width="1.13" fill="#000000" fill-opacity="0.000" stroke="#D3D3D3" id="img-eaa92b12-1">
  <g transform="translate(54.7,23.28)">
    <path fill="none" d="M-37.87,12.61 L37.87,-12.61 " class="primitive"/>
  </g>
  <g transform="translate(64.43,56.68)">
    <path fill="none" d="M-47.69,-17.32 L47.69,17.32 " class="primitive"/>
  </g>
  <g transform="translate(28.47,22.95)">
    <path fill="none" d="M-13.19,11.55 L13.19,-11.55 " class="primitive"/>
  </g>
  <g transform="translate(40.62,64.62)">
    <path fill="none" d="M-25.48,-23.91 L25.48,23.91 " class="primitive"/>
  </g>
  <g transform="translate(69.83,75.22)">
    <path fill="none" d="M41.68,0.51 L-41.68,-0.51 " class="primitive"/>
  </g>
  <g transform="translate(123.36,57.4)">
    <path fill="none" d="M-4.97,14.57 L4.97,-14.57 " class="primitive"/>
  </g>
  <g transform="translate(81.12,42.07)">
    <path fill="none" d="M32.61,30.59 L-32.61,-30.59 " class="primitive"/>
  </g>
  <g transform="translate(33.87,41.49)">
    <path fill="none" d="M9.99,-29.33 L-9.99,29.33 " class="primitive"/>
  </g>
  <g transform="translate(87.4,23.67)">
    <path fill="none" d="M-37.28,-13.54 L37.28,13.54 " class="primitive"/>
  </g>
</g>
<g stroke-width="1.13" stroke="#D3D3D3" id="img-eaa92b12-2">
  <g transform="translate(89.23,11.78)">
    <path fill="none" d="M-2.53,-0.73 L3.34,-1.11 -0.81,1.85 " class="primitive"/>
  </g>
  <g transform="translate(108.84,72.81)">
    <path fill="none" d="M-0.72,-1.86 L3.28,1.19 -2.56,0.67 " class="primitive"/>
  </g>
  <g transform="translate(39.35,13.43)">
    <path fill="none" d="M-2.73,0.12 L2.32,-2.03 0.41,1.91 " class="primitive"/>
  </g>
  <g transform="translate(63.88,86.44)">
    <path fill="none" d="M0.5,-1.9 L2.22,2.08 -2.72,-0.18 " class="primitive"/>
  </g>
  <g transform="translate(31.84,74.76)">
    <path fill="none" d="M1.81,1.45 L-3.69,-0.04 1.88,-1.4 " class="primitive"/>
  </g>
  <g transform="translate(127.46,45.37)">
    <path fill="none" d="M-2.39,0.93 L0.87,-2.54 1.53,1.6 " class="primitive"/>
  </g>
  <g transform="translate(50.74,13.56)">
    <path fill="none" d="M-0.5,1.9 L-2.22,-2.08 2.72,0.18 " class="primitive"/>
  </g>
  <g transform="translate(24.75,68.28)">
    <path fill="none" d="M2.39,-0.94 L-0.86,2.54 -1.53,-1.6 " class="primitive"/>
  </g>
  <g transform="translate(121.4,36.01)">
    <path fill="none" d="M-0.72,-1.86 L3.28,1.19 -2.56,0.67 " class="primitive"/>
  </g>
</g>
<g font-size="4" stroke="#000000" stroke-opacity="0.000" fill="#000000" id="img-eaa92b12-3">
</g>
<g stroke-width="0" stroke="#000000" stroke-opacity="0.000" fill="#40E0D0" id="img-eaa92b12-4">
  <g transform="translate(11.79,37.57)">
    <circle cx="0" cy="0" r="5.35" class="primitive"/>
  </g>
  <g transform="translate(22.58,74.65)">
    <circle cx="0" cy="0" r="5.35" class="primitive"/>
  </g>
  <g transform="translate(129.64,39)">
    <circle cx="0" cy="0" r="5.35" class="primitive"/>
  </g>
  <g transform="translate(97.61,8.99)">
    <circle cx="0" cy="0" r="5.35" class="primitive"/>
  </g>
  <g transform="translate(117.08,75.8)">
    <circle cx="0" cy="0" r="5.35" class="primitive"/>
  </g>
  <g transform="translate(45.16,8.33)">
    <circle cx="0" cy="0" r="5.35" class="primitive"/>
  </g>
  <g transform="translate(69.45,91.67)">
    <circle cx="0" cy="0" r="5.35" class="primitive"/>
  </g>
</g>
<g font-size="4" stroke="#000000" stroke-opacity="0.000" fill="#000000" id="img-eaa92b12-5">
  <g transform="translate(11.79,37.57)">
    <g class="primitive">
      <text text-anchor="middle" dy="0.35em">ToGPU()</text>
    </g>
  </g>
  <g transform="translate(22.58,74.65)">
    <g class="primitive">
      <text text-anchor="middle" dy="0.35em">ProgressPrinter()</text>
    </g>
  </g>
  <g transform="translate(129.64,39)">
    <g class="primitive">
      <text text-anchor="middle" dy="0.35em">MetricsPrinter()</text>
    </g>
  </g>
  <g transform="translate(97.61,8.99)">
    <g class="primitive">
      <text text-anchor="middle" dy="0.35em">StopOnNaNLoss()</text>
    </g>
  </g>
  <g transform="translate(117.08,75.8)">
    <g class="primitive">
      <text text-anchor="middle" dy="0.35em">Recorder()</text>
    </g>
  </g>
  <g transform="translate(45.16,8.33)">
    <g class="primitive">
      <text text-anchor="middle" dy="0.35em">Metrics(Loss())</text>
    </g>
  </g>
  <g transform="translate(69.45,91.67)">
    <g class="primitive">
      <text text-anchor="middle" dy="0.35em">SanityCheck(FluxTraining.Check[Check("Has training data iterator"), Check("Has validation data iterator"), Check("Data iterators iterate over tuples"), Check("Model and loss function compatible with data")], false)</text>
    </g>
  </g>
</g>
</svg>
