<?xml version="1.0" encoding="UTF-8"?>
<svg xmlns="http://www.w3.org/2000/svg"
     xmlns:xlink="http://www.w3.org/1999/xlink"
     version="1.2"
     width="141.42mm" height="100mm" viewBox="0 0 141.42 100"
     stroke="none"
     fill="#000000"
     stroke-width="0.3"
     font-size="3.88"
>
<defs>
  <marker id="arrow" markerWidth="15" markerHeight="7" refX="5" refY="3.5" orient="auto" markerUnits="strokeWidth">
    <path d="M0,0 L15,3.5 L0,7 z" stroke="context-stroke" fill="context-stroke"/>
  </marker>
</defs>
<g stroke-width="1.13" fill="#000000" fill-opacity="0.000" stroke="#D3D3D3" id="img-5a8bc864-1">
  <g transform="translate(95.92,37.12)">
    <path fill="none" d="M20.63,-10.56 L-20.63,10.56 " class="primitive"/>
  </g>
  <g transform="translate(100.15,57.96)">
    <path fill="none" d="M18.67,-30.11 L-18.67,30.11 " class="primitive"/>
  </g>
  <g transform="translate(125.35,45.09)">
    <path fill="none" d="M-3.49,-16.95 L3.49,16.95 " class="primitive"/>
  </g>
  <g transform="translate(66.42,29.16)">
    <path fill="none" d="M49.11,-4.42 L-49.11,4.42 " class="primitive"/>
  </g>
  <g transform="translate(70.67,50)">
    <path fill="none" d="M7.77,37.77 L-7.77,-37.77 " class="primitive"/>
  </g>
  <g transform="translate(49.8,83.69)">
    <path fill="none" d="M24.25,6.56 L-24.25,-6.56 " class="primitive"/>
  </g>
  <g transform="translate(104.44,78.8)">
    <path fill="none" d="M-20.68,10.56 L20.68,-10.56 " class="primitive"/>
  </g>
  <g transform="translate(95.87,37.14)">
    <path fill="none" d="M30.22,25.77 L-30.22,-25.77 " class="primitive"/>
  </g>
  <g transform="translate(75,70.83)">
    <path fill="none" d="M49.12,-4.4 L-49.12,4.4 " class="primitive"/>
  </g>
</g>
<g stroke-width="1.13" stroke="#D3D3D3" id="img-5a8bc864-2">
  <g transform="translate(78.28,46.15)">
    <path fill="none" d="M2.68,0.39 L-2.99,1.53 0.31,-1.92 " class="primitive"/>
  </g>
  <g transform="translate(82.97,85.67)">
    <path fill="none" d="M2.59,-0.62 L-1.48,2.39 -1.1,-1.77 " class="primitive"/>
  </g>
  <g transform="translate(128.3,59.46)">
    <path fill="none" d="M1.73,-1.5 L0.53,2.58 -2.26,-1.09 " class="primitive"/>
  </g>
  <g transform="translate(20.97,33.26)">
    <path fill="none" d="M2.09,1.25 L-3.66,0.33 1.58,-1.58 " class="primitive"/>
  </g>
  <g transform="translate(63.43,14.81)">
    <path fill="none" d="M-1.73,1.5 L-0.53,-2.58 2.26,1.09 " class="primitive"/>
  </g>
  <g transform="translate(29,78.06)">
    <path fill="none" d="M1,1.8 L-3.45,-0.93 2.44,-0.86 " class="primitive"/>
  </g>
  <g transform="translate(122.13,69.77)">
    <path fill="none" d="M-2.68,-0.39 L2.99,-1.53 -0.32,1.92 " class="primitive"/>
  </g>
  <g transform="translate(68,13.37)">
    <path fill="none" d="M-0.37,1.91 L-2.36,-2.01 2.73,0.1 " class="primitive"/>
  </g>
  <g transform="translate(29.54,74.9)">
    <path fill="none" d="M2.08,1.25 L-3.66,0.33 1.58,-1.58 " class="primitive"/>
  </g>
</g>
<g font-size="4" stroke="#000000" stroke-opacity="0.000" fill="#000000" id="img-5a8bc864-3">
</g>
<g stroke-width="0" stroke="#000000" stroke-opacity="0.000" fill="#40E0D0" id="img-5a8bc864-4">
  <g transform="translate(121.05,24.24)">
    <circle cx="0" cy="0" r="5.35" class="primitive"/>
  </g>
  <g transform="translate(62.1,8.33)">
    <circle cx="0" cy="0" r="5.35" class="primitive"/>
  </g>
  <g transform="translate(20.36,75.72)">
    <circle cx="0" cy="0" r="5.35" class="primitive"/>
  </g>
  <g transform="translate(70.78,49.99)">
    <circle cx="0" cy="0" r="5.35" class="primitive"/>
  </g>
  <g transform="translate(79.25,91.67)">
    <circle cx="0" cy="0" r="5.35" class="primitive"/>
  </g>
  <g transform="translate(129.64,65.94)">
    <circle cx="0" cy="0" r="5.35" class="primitive"/>
  </g>
  <g transform="translate(11.79,34.08)">
    <circle cx="0" cy="0" r="5.35" class="primitive"/>
  </g>
</g>
<g font-size="4" stroke="#000000" stroke-opacity="0.000" fill="#000000" id="img-5a8bc864-5">
  <g transform="translate(121.05,24.24)">
    <g class="primitive">
      <text text-anchor="middle" dy="0.35em">ToGPU()</text>
    </g>
  </g>
  <g transform="translate(62.1,8.33)">
    <g class="primitive">
      <text text-anchor="middle" dy="0.35em">ProgressPrinter()</text>
    </g>
  </g>
  <g transform="translate(20.36,75.72)">
    <g class="primitive">
      <text text-anchor="middle" dy="0.35em">MetricsPrinter()</text>
    </g>
  </g>
  <g transform="translate(70.78,49.99)">
    <g class="primitive">
      <text text-anchor="middle" dy="0.35em">StopOnNaNLoss()</text>
    </g>
  </g>
  <g transform="translate(79.25,91.67)">
    <g class="primitive">
      <text text-anchor="middle" dy="0.35em">Recorder()</text>
    </g>
  </g>
  <g transform="translate(129.64,65.94)">
    <g class="primitive">
      <text text-anchor="middle" dy="0.35em">Metrics(Loss())</text>
    </g>
  </g>
  <g transform="translate(11.79,34.08)">
    <g class="primitive">
      <text text-anchor="middle" dy="0.35em">SanityCheck(FluxTraining.Check[Check("Has training data iterator"), Check("Has validation data iterator"), Check("Data iterators iterate over tuples"), Check("Model and loss function compatible with data")], false)</text>
    </g>
  </g>
</g>
</svg>
