<?xml version="1.0" encoding="UTF-8"?>
<svg xmlns="http://www.w3.org/2000/svg"
     xmlns:xlink="http://www.w3.org/1999/xlink"
     version="1.2"
     width="141.42mm" height="100mm" viewBox="0 0 141.42 100"
     stroke="none"
     fill="#000000"
     stroke-width="0.3"
     font-size="3.88"
>
<defs>
  <marker id="arrow" markerWidth="15" markerHeight="7" refX="5" refY="3.5" orient="auto" markerUnits="strokeWidth">
    <path d="M0,0 L15,3.5 L0,7 z" stroke="context-stroke" fill="context-stroke"/>
  </marker>
</defs>
<g stroke-width="1.13" fill="#000000" fill-opacity="0.000" stroke="#D3D3D3" id="img-db7fffa3-1">
  <g transform="translate(100.15,42.47)">
    <path fill="none" d="M-24.24,6.16 L24.24,-6.16 " class="primitive"/>
  </g>
  <g transform="translate(46.2,36.68)">
    <path fill="none" d="M20.06,10.88 L-20.06,-10.88 " class="primitive"/>
  </g>
  <g transform="translate(65.71,70.81)">
    <path fill="none" d="M4.04,-16.97 L-4.04,16.97 " class="primitive"/>
  </g>
  <g transform="translate(95.15,63.29)">
    <path fill="none" d="M-20.07,-10.93 L20.07,10.93 " class="primitive"/>
  </g>
  <g transform="translate(16.75,44.24)">
    <path fill="none" d="M4.04,-16.96 L-4.04,16.96 " class="primitive"/>
  </g>
  <g transform="translate(51.21,15.87)">
    <path fill="none" d="M-24.25,6.2 L24.25,-6.2 " class="primitive"/>
  </g>
  <g transform="translate(41.24,57.53)">
    <path fill="none" d="M-17.42,-30.48 L17.42,30.48 " class="primitive"/>
  </g>
  <g transform="translate(36.27,78.38)">
    <path fill="none" d="M20.06,10.89 L-20.06,-10.89 " class="primitive"/>
  </g>
  <g transform="translate(70.72,50)">
    <path fill="none" d="M-9.04,37.78 L9.04,-37.78 " class="primitive"/>
  </g>
</g>
<g stroke-width="1.13" stroke="#D3D3D3" id="img-db7fffa3-2">
  <g transform="translate(120.92,37.19)">
    <path fill="none" d="M-2.42,-0.9 L3.47,-0.88 -1.06,1.78 " class="primitive"/>
  </g>
  <g transform="translate(29.07,27.39)">
    <path fill="none" d="M0.24,1.93 L-2.93,-1.59 2.69,-0.34 " class="primitive"/>
  </g>
  <g transform="translate(62.28,85.21)">
    <path fill="none" d="M2.29,-1.05 L-0.61,2.57 -1.68,-1.52 " class="primitive"/>
  </g>
  <g transform="translate(112.3,72.63)">
    <path fill="none" d="M-0.23,-1.93 L2.92,1.59 -2.69,0.33 " class="primitive"/>
  </g>
  <g transform="translate(13.32,58.63)">
    <path fill="none" d="M2.29,-1.05 L-0.61,2.57 -1.68,-1.52 " class="primitive"/>
  </g>
  <g transform="translate(71.98,10.56)">
    <path fill="none" d="M-2.42,-0.9 L3.47,-0.89 -1.05,1.78 " class="primitive"/>
  </g>
  <g transform="translate(57.28,85.6)">
    <path fill="none" d="M1.18,-1.74 L1.38,2.42 -2.56,-0.68 " class="primitive"/>
  </g>
  <g transform="translate(19.13,69.07)">
    <path fill="none" d="M0.24,1.93 L-2.93,-1.59 2.69,-0.34 " class="primitive"/>
  </g>
  <g transform="translate(79.14,14.79)">
    <path fill="none" d="M-2.3,1.05 L0.62,-2.57 1.68,1.52 " class="primitive"/>
  </g>
</g>
<g font-size="4" stroke="#000000" stroke-opacity="0.000" fill="#000000" id="img-db7fffa3-3">
</g>
<g stroke-width="0" stroke="#000000" stroke-opacity="0.000" fill="#40E0D0" id="img-db7fffa3-4">
  <g transform="translate(70.67,49.96)">
    <circle cx="0" cy="0" r="5.35" class="primitive"/>
  </g>
  <g transform="translate(11.79,65.08)">
    <circle cx="0" cy="0" r="5.35" class="primitive"/>
  </g>
  <g transform="translate(80.69,8.33)">
    <circle cx="0" cy="0" r="5.35" class="primitive"/>
  </g>
  <g transform="translate(129.64,34.97)">
    <circle cx="0" cy="0" r="5.35" class="primitive"/>
  </g>
  <g transform="translate(21.72,23.4)">
    <circle cx="0" cy="0" r="5.35" class="primitive"/>
  </g>
  <g transform="translate(60.75,91.67)">
    <circle cx="0" cy="0" r="5.35" class="primitive"/>
  </g>
  <g transform="translate(119.63,76.62)">
    <circle cx="0" cy="0" r="5.35" class="primitive"/>
  </g>
</g>
<g font-size="4" stroke="#000000" stroke-opacity="0.000" fill="#000000" id="img-db7fffa3-5">
  <g transform="translate(70.67,49.96)">
    <g class="primitive">
      <text text-anchor="middle" dy="0.35em">ToGPU()</text>
    </g>
  </g>
  <g transform="translate(11.79,65.08)">
    <g class="primitive">
      <text text-anchor="middle" dy="0.35em">ProgressPrinter()</text>
    </g>
  </g>
  <g transform="translate(80.69,8.33)">
    <g class="primitive">
      <text text-anchor="middle" dy="0.35em">MetricsPrinter()</text>
    </g>
  </g>
  <g transform="translate(129.64,34.97)">
    <g class="primitive">
      <text text-anchor="middle" dy="0.35em">StopOnNaNLoss()</text>
    </g>
  </g>
  <g transform="translate(21.72,23.4)">
    <g class="primitive">
      <text text-anchor="middle" dy="0.35em">Recorder()</text>
    </g>
  </g>
  <g transform="translate(60.75,91.67)">
    <g class="primitive">
      <text text-anchor="middle" dy="0.35em">Metrics(Loss())</text>
    </g>
  </g>
  <g transform="translate(119.63,76.62)">
    <g class="primitive">
      <text text-anchor="middle" dy="0.35em">SanityCheck(FluxTraining.Check[Check("Has training data iterator"), Check("Has validation data iterator"), Check("Data iterators iterate over tuples"), Check("Model and loss function compatible with data")])</text>
    </g>
  </g>
</g>
</svg>
