<?xml version="1.0" encoding="UTF-8"?>
<svg xmlns="http://www.w3.org/2000/svg"
     xmlns:xlink="http://www.w3.org/1999/xlink"
     version="1.2"
     width="141.42mm" height="100mm" viewBox="0 0 141.42 100"
     stroke="none"
     fill="#000000"
     stroke-width="0.3"
     font-size="3.88"
>
<defs>
  <marker id="arrow" markerWidth="15" markerHeight="7" refX="5" refY="3.5" orient="auto" markerUnits="strokeWidth">
    <path d="M0,0 L15,3.5 L0,7 z" stroke="context-stroke" fill="context-stroke"/>
  </marker>
</defs>
<g stroke-width="1.13" fill="#000000" fill-opacity="0.000" stroke="#D3D3D3" id="img-0b22de74-1">
  <g transform="translate(39.91,18.29)">
    <path fill="none" d="M-17.62,7.85 L17.62,-7.85 " class="primitive"/>
  </g>
  <g transform="translate(64.85,24.41)">
    <path fill="none" d="M-41.74,3.38 L41.74,-3.38 " class="primitive"/>
  </g>
  <g transform="translate(59.62,57.83)">
    <path fill="none" d="M-38.09,-26.81 L38.09,26.81 " class="primitive"/>
  </g>
  <g transform="translate(73.61,42.01)">
    <path fill="none" d="M-50.77,-12.48 L50.77,12.48 " class="primitive"/>
  </g>
  <g transform="translate(80.66,56.12)">
    <path fill="none" d="M28.51,-32.21 L-28.51,32.21 " class="primitive"/>
  </g>
  <g transform="translate(61.95,42.95)">
    <path fill="none" d="M45.46,-20.28 L-45.46,20.28 " class="primitive"/>
  </g>
  <g transform="translate(106.89,54)">
    <path fill="none" d="M4.62,-29.51 L-4.62,29.51 " class="primitive"/>
  </g>
  <g transform="translate(75.42,89.55)">
    <path fill="none" d="M20.7,-1.67 L-20.7,1.67 " class="primitive"/>
  </g>
  <g transform="translate(56.72,76.38)">
    <path fill="none" d="M39.68,9.75 L-39.68,-9.75 " class="primitive"/>
  </g>
</g>
<g stroke-width="1.13" stroke="#D3D3D3" id="img-0b22de74-2">
  <g transform="translate(54.41,11.83)">
    <path fill="none" d="M-2.64,-0.51 L3.12,-1.39 -0.49,1.9 " class="primitive"/>
  </g>
  <g transform="translate(102.92,21.32)">
    <path fill="none" d="M-2.06,-1.27 L3.67,-0.3 -1.6,1.56 " class="primitive"/>
  </g>
  <g transform="translate(95.09,82.8)">
    <path fill="none" d="M0.11,-1.93 L2.62,1.84 -2.73,0.09 " class="primitive"/>
  </g>
  <g transform="translate(120.89,53.63)">
    <path fill="none" d="M-1.08,-1.77 L3.49,0.86 -2.41,0.92 " class="primitive"/>
  </g>
  <g transform="translate(54.11,86.12)">
    <path fill="none" d="M2.69,-0.35 L-1.96,2.21 -0.73,-1.86 " class="primitive"/>
  </g>
  <g transform="translate(19.62,61.84)">
    <path fill="none" d="M2.64,0.51 L-3.12,1.39 0.49,-1.9 " class="primitive"/>
  </g>
  <g transform="translate(102.67,80.92)">
    <path fill="none" d="M2.21,-1.14 L-0.41,2.59 -1.8,-1.45 " class="primitive"/>
  </g>
  <g transform="translate(58.39,90.92)">
    <path fill="none" d="M2.06,1.27 L-3.67,0.3 1.6,-1.56 " class="primitive"/>
  </g>
  <g transform="translate(20.53,67.49)">
    <path fill="none" d="M1.08,1.77 L-3.49,-0.86 2.41,-0.92 " class="primitive"/>
  </g>
</g>
<g font-size="4" stroke="#000000" stroke-opacity="0.000" fill="#000000" id="img-0b22de74-3">
</g>
<g stroke-width="0" stroke="#000000" stroke-opacity="0.000" fill="#40E0D0" id="img-0b22de74-4">
  <g transform="translate(17.59,28.24)">
    <circle cx="0" cy="0" r="5.35" class="primitive"/>
  </g>
  <g transform="translate(49.19,91.67)">
    <circle cx="0" cy="0" r="5.35" class="primitive"/>
  </g>
  <g transform="translate(11.79,65.34)">
    <circle cx="0" cy="0" r="5.35" class="primitive"/>
  </g>
  <g transform="translate(62.24,8.33)">
    <circle cx="0" cy="0" r="5.35" class="primitive"/>
  </g>
  <g transform="translate(112.12,20.57)">
    <circle cx="0" cy="0" r="5.35" class="primitive"/>
  </g>
  <g transform="translate(101.65,87.42)">
    <circle cx="0" cy="0" r="5.35" class="primitive"/>
  </g>
  <g transform="translate(129.64,55.78)">
    <circle cx="0" cy="0" r="5.35" class="primitive"/>
  </g>
</g>
<g font-size="4" stroke="#000000" stroke-opacity="0.000" fill="#000000" id="img-0b22de74-5">
  <g transform="translate(17.59,28.24)">
    <g class="primitive">
      <text text-anchor="middle" dy="0.35em">ToGPU()</text>
    </g>
  </g>
  <g transform="translate(49.19,91.67)">
    <g class="primitive">
      <text text-anchor="middle" dy="0.35em">ProgressPrinter()</text>
    </g>
  </g>
  <g transform="translate(11.79,65.34)">
    <g class="primitive">
      <text text-anchor="middle" dy="0.35em">MetricsPrinter()</text>
    </g>
  </g>
  <g transform="translate(62.24,8.33)">
    <g class="primitive">
      <text text-anchor="middle" dy="0.35em">StopOnNaNLoss()</text>
    </g>
  </g>
  <g transform="translate(112.12,20.57)">
    <g class="primitive">
      <text text-anchor="middle" dy="0.35em">Recorder()</text>
    </g>
  </g>
  <g transform="translate(101.65,87.42)">
    <g class="primitive">
      <text text-anchor="middle" dy="0.35em">Metrics(Loss())</text>
    </g>
  </g>
  <g transform="translate(129.64,55.78)">
    <g class="primitive">
      <text text-anchor="middle" dy="0.35em">SanityCheck(FluxTraining.Check[Check("Has training data iterator"), Check("Has validation data iterator"), Check("Data iterators iterate over tuples"), Check("Model and loss function compatible with data")])</text>
    </g>
  </g>
</g>
</svg>
