<?xml version="1.0" encoding="UTF-8"?>
<svg xmlns="http://www.w3.org/2000/svg"
     xmlns:xlink="http://www.w3.org/1999/xlink"
     version="1.2"
     width="141.42mm" height="100mm" viewBox="0 0 141.42 100"
     stroke="none"
     fill="#000000"
     stroke-width="0.3"
     font-size="3.88"
>
<defs>
  <marker id="arrow" markerWidth="15" markerHeight="7" refX="5" refY="3.5" orient="auto" markerUnits="strokeWidth">
    <path d="M0,0 L15,3.5 L0,7 z" stroke="context-stroke" fill="context-stroke"/>
  </marker>
</defs>
<g stroke-width="1.22" fill="#000000" fill-opacity="0.000" stroke="#D3D3D3" id="img-7cba8c8f-1">
  <g transform="translate(56.12,13.68)">
    <path fill="none" d="M-30.56,4.48 L30.56,-4.48 " class="primitive"/>
  </g>
  <g transform="translate(49.67,55.34)">
    <path fill="none" d="M-26.96,-32.65 L26.96,32.65 " class="primitive"/>
  </g>
  <g transform="translate(15.73,44.76)">
    <path fill="none" d="M3.3,-21.52 L-3.3,21.52 " class="primitive"/>
  </g>
  <g transform="translate(104.65,72.48)">
    <path fill="none" d="M-20.91,16.06 L20.91,-16.06 " class="primitive"/>
  </g>
  <g transform="translate(73.19,70.08)">
    <path fill="none" d="M5.23,17.42 L-5.23,-17.42 " class="primitive"/>
  </g>
  <g transform="translate(45.72,81.09)">
    <path fill="none" d="M28.44,8.87 L-28.44,-8.87 " class="primitive"/>
  </g>
  <g transform="translate(70.71,61.9)">
    <path fill="none" d="M-53.04,7.75 L53.04,-7.75 " class="primitive"/>
  </g>
  <g transform="translate(39.25,59.5)">
    <path fill="none" d="M-22.23,8.91 L22.23,-8.91 " class="primitive"/>
  </g>
</g>
<g stroke-width="1.22" stroke="#D3D3D3" id="img-7cba8c8f-2">
  <g transform="translate(83.07,9.73)">
    <path fill="none" d="M-2.22,-1.13 L3.61,-0.53 -1.4,1.66 " class="primitive"/>
  </g>
  <g transform="translate(74.77,85.74)">
    <path fill="none" d="M0.81,-1.85 L1.86,2.25 -2.67,-0.41 " class="primitive"/>
  </g>
  <g transform="translate(12.83,63.68)">
    <path fill="none" d="M2.2,-1.14 L-0.4,2.6 -1.8,-1.45 " class="primitive"/>
  </g>
  <g transform="translate(123.06,58.34)">
    <path fill="none" d="M-2.73,-0.01 L2.5,-1.92 0.23,1.93 " class="primitive"/>
  </g>
  <g transform="translate(68.73,55.21)">
    <path fill="none" d="M-1.59,1.57 L-0.77,-2.55 2.35,0.98 " class="primitive"/>
  </g>
  <g transform="translate(20.67,73.27)">
    <path fill="none" d="M0.88,1.83 L-3.38,-1.05 2.5,-0.78 " class="primitive"/>
  </g>
  <g transform="translate(120.13,54.68)">
    <path fill="none" d="M-2.22,-1.13 L3.62,-0.53 -1.4,1.66 " class="primitive"/>
  </g>
  <g transform="translate(58.27,51.88)">
    <path fill="none" d="M-2.6,-0.6 L3.21,-1.29 -0.61,1.88 " class="primitive"/>
  </g>
</g>
<g font-size="4" stroke="#000000" stroke-opacity="0.000" fill="#000000" id="img-7cba8c8f-3">
</g>
<g stroke-width="0" stroke="#000000" stroke-opacity="0.000" fill="#40E0D0" id="img-7cba8c8f-4">
  <g transform="translate(19.68,19.02)">
    <circle cx="0" cy="0" r="5.77" class="primitive"/>
  </g>
  <g transform="translate(129.64,53.29)">
    <circle cx="0" cy="0" r="5.77" class="primitive"/>
  </g>
  <g transform="translate(66.71,48.5)">
    <circle cx="0" cy="0" r="5.77" class="primitive"/>
  </g>
  <g transform="translate(92.57,8.33)">
    <circle cx="0" cy="0" r="5.77" class="primitive"/>
  </g>
  <g transform="translate(79.66,91.67)">
    <circle cx="0" cy="0" r="5.77" class="primitive"/>
  </g>
  <g transform="translate(11.79,70.5)">
    <circle cx="0" cy="0" r="5.77" class="primitive"/>
  </g>
</g>
<g font-size="4" stroke="#000000" stroke-opacity="0.000" fill="#000000" id="img-7cba8c8f-5">
  <g transform="translate(19.68,19.02)">
    <g class="primitive">
      <text text-anchor="middle" dy="0.35em">ToGPU()</text>
    </g>
  </g>
  <g transform="translate(129.64,53.29)">
    <g class="primitive">
      <text text-anchor="middle" dy="0.35em">ProgressPrinter()</text>
    </g>
  </g>
  <g transform="translate(66.71,48.5)">
    <g class="primitive">
      <text text-anchor="middle" dy="0.35em">MetricsPrinter()</text>
    </g>
  </g>
  <g transform="translate(92.57,8.33)">
    <g class="primitive">
      <text text-anchor="middle" dy="0.35em">StopOnNaNLoss()</text>
    </g>
  </g>
  <g transform="translate(79.66,91.67)">
    <g class="primitive">
      <text text-anchor="middle" dy="0.35em">Recorder()</text>
    </g>
  </g>
  <g transform="translate(11.79,70.5)">
    <g class="primitive">
      <text text-anchor="middle" dy="0.35em">Metrics(Loss())</text>
    </g>
  </g>
</g>
</svg>
