<?xml version="1.0" encoding="UTF-8"?>
<svg xmlns="http://www.w3.org/2000/svg"
     xmlns:xlink="http://www.w3.org/1999/xlink"
     version="1.2"
     width="141.42mm" height="100mm" viewBox="0 0 141.42 100"
     stroke="none"
     fill="#000000"
     stroke-width="0.3"
     font-size="3.88"
>
<defs>
  <marker id="arrow" markerWidth="15" markerHeight="7" refX="5" refY="3.5" orient="auto" markerUnits="strokeWidth">
    <path d="M0,0 L15,3.5 L0,7 z" stroke="context-stroke" fill="context-stroke"/>
  </marker>
</defs>
<g stroke-width="1.22" fill="#000000" fill-opacity="0.000" stroke="#D3D3D3" id="img-e6bab92a-1">
  <g transform="translate(52.05,50.95)">
    <path fill="none" d="M-18.27,-36.7 L 18.27 36.7" class="primitive"/>
  </g>
  <g transform="translate(68.22,9.29)">
    <path fill="none" d="M-30.43,0.8 L 30.43 -0.8" class="primitive"/>
  </g>
  <g transform="translate(21.78,36.02)">
    <path fill="none" d="M8.41,-21.68 L -8.41 21.68" class="primitive"/>
  </g>
  <g transform="translate(117.15,33.49)">
    <path fill="none" d="M-10.49,-21.14 L 10.49 21.14" class="primitive"/>
  </g>
  <g transform="translate(87.31,27.22)">
    <path fill="none" d="M14.08,-15.32 L -14.08 15.32" class="primitive"/>
  </g>
  <g transform="translate(58.23,35.07)">
    <path fill="none" d="M41.78,-24.05 L -41.78 24.05" class="primitive"/>
  </g>
  <g transform="translate(70.71,60.22)">
    <path fill="none" d="M-52.92,1.42 L 52.92 -1.42" class="primitive"/>
  </g>
  <g transform="translate(40.87,53.95)">
    <path fill="none" d="M-23.46,6.34 L 23.46 -6.34" class="primitive"/>
  </g>
</g>
<g stroke-width="1.22" stroke="#D3D3D3" id="img-e6bab92a-2">
  <g transform="translate(69.09,85.19)">
    <path fill="none" d="M1.29,-1.7 L 1.23 2.46 -2.51 -0.76" class="primitive"/>
  </g>
  <g transform="translate(94.97,8.59)">
    <path fill="none" d="M-1.92,-1.38 L 3.69 -0.1 -1.77 1.47" class="primitive"/>
  </g>
  <g transform="translate(14.35,55.19)">
    <path fill="none" d="M2.43,-0.88 L -0.98 2.52 -1.46 -1.64" class="primitive"/>
  </g>
  <g transform="translate(126.42,52.16)">
    <path fill="none" d="M1.29,-1.7 L 1.22 2.46 -2.51 -0.76" class="primitive"/>
  </g>
  <g transform="translate(75.24,40.34)">
    <path fill="none" d="M2.7,-0.32 L -2.01 2.19 -0.68 -1.87" class="primitive"/>
  </g>
  <g transform="translate(19.31,57.47)">
    <path fill="none" d="M2.7,0.28 L -2.86 1.65 0.16 -1.93" class="primitive"/>
  </g>
  <g transform="translate(119.94,58.9)">
    <path fill="none" d="M-1.92,-1.37 L 3.69 -0.1 -1.77 1.47" class="primitive"/>
  </g>
  <g transform="translate(60.88,48.55)">
    <path fill="none" d="M-2.44,-0.87 L 3.45 -0.93 -1.01 1.8" class="primitive"/>
  </g>
</g>
<g font-size="4" stroke="#000000" stroke-opacity="0.000" fill="#000000" id="img-e6bab92a-3">
</g>
<g stroke-width="0" stroke="#000000" stroke-opacity="0.000" fill="#40E0D0" id="img-e6bab92a-4">
  <g transform="translate(31.78,10.24)">
    <circle cx="0" cy="0" r="5.77" class="primitive"/>
  </g>
  <g transform="translate(129.64,58.64)">
    <circle cx="0" cy="0" r="5.77" class="primitive"/>
  </g>
  <g transform="translate(69.95,46.1)">
    <circle cx="0" cy="0" r="5.77" class="primitive"/>
  </g>
  <g transform="translate(72.31,91.67)">
    <circle cx="0" cy="0" r="5.77" class="primitive"/>
  </g>
  <g transform="translate(104.67,8.33)">
    <circle cx="0" cy="0" r="5.77" class="primitive"/>
  </g>
  <g transform="translate(11.79,61.81)">
    <circle cx="0" cy="0" r="5.77" class="primitive"/>
  </g>
</g>
<g font-size="4" stroke="#000000" stroke-opacity="0.000" fill="#000000" id="img-e6bab92a-5">
  <g transform="translate(31.78,10.24)">
    <g class="primitive">
      <text text-anchor="middle" dy="0.35em">ToGPU()</text>
    </g>
  </g>
  <g transform="translate(129.64,58.64)">
    <g class="primitive">
      <text text-anchor="middle" dy="0.35em">ProgressPrinter()</text>
    </g>
  </g>
  <g transform="translate(69.95,46.1)">
    <g class="primitive">
      <text text-anchor="middle" dy="0.35em">MetricsPrinter()</text>
    </g>
  </g>
  <g transform="translate(72.31,91.67)">
    <g class="primitive">
      <text text-anchor="middle" dy="0.35em">StopOnNaNLoss()</text>
    </g>
  </g>
  <g transform="translate(104.67,8.33)">
    <g class="primitive">
      <text text-anchor="middle" dy="0.35em">Recorder()</text>
    </g>
  </g>
  <g transform="translate(11.79,61.81)">
    <g class="primitive">
      <text text-anchor="middle" dy="0.35em">Metrics(Loss())</text>
    </g>
  </g>
</g>
</svg>
