<?xml version="1.0" encoding="UTF-8"?>
<svg xmlns="http://www.w3.org/2000/svg"
     xmlns:xlink="http://www.w3.org/1999/xlink"
     version="1.2"
     width="141.42mm" height="100mm" viewBox="0 0 141.42 100"
     stroke="none"
     fill="#000000"
     stroke-width="0.3"
     font-size="3.88"
>
<defs>
  <marker id="arrow" markerWidth="15" markerHeight="7" refX="5" refY="3.5" orient="auto" markerUnits="strokeWidth">
    <path d="M0,0 L15,3.5 L0,7 z" stroke="context-stroke" fill="context-stroke"/>
  </marker>
</defs>
<g stroke-width="1.22" fill="#000000" fill-opacity="0.000" stroke="#D3D3D3" id="img-9bee94d6-1">
  <g transform="translate(93.07,35.31)">
    <path fill="none" d="M32.4,23.9 L-32.4,-23.9 " class="primitive"/>
  </g>
  <g transform="translate(70.71,50)">
    <path fill="none" d="M53.16,11.07 L-53.16,-11.07 " class="primitive"/>
  </g>
  <g transform="translate(77.8,70.84)">
    <path fill="none" d="M45.98,-7.59 L-45.98,7.59 " class="primitive"/>
  </g>
  <g transform="translate(48.34,64.7)">
    <path fill="none" d="M-32.4,-23.9 L32.4,23.9 " class="primitive"/>
  </g>
  <g transform="translate(63.61,29.17)">
    <path fill="none" d="M-45.97,7.59 L45.97,-7.59 " class="primitive"/>
  </g>
  <g transform="translate(18.88,58.56)">
    <path fill="none" d="M-5.69,-16.7 L5.69,16.7 " class="primitive"/>
  </g>
  <g transform="translate(55.44,85.53)">
    <path fill="none" d="M-23.69,-4.93 L23.69,4.93 " class="primitive"/>
  </g>
  <g transform="translate(70.7,50.01)">
    <path fill="none" d="M-40.32,26.5 L40.32,-26.5 " class="primitive"/>
  </g>
</g>
<g stroke-width="1.22" stroke="#D3D3D3" id="img-9bee94d6-2">
  <g transform="translate(63.23,13.29)">
    <path fill="none" d="M-0.18,1.93 L-2.55,-1.88 2.73,-0.04 " class="primitive"/>
  </g>
  <g transform="translate(21.1,39.67)">
    <path fill="none" d="M1.2,1.74 L-3.54,-0.74 2.34,-1 " class="primitive"/>
  </g>
  <g transform="translate(35.42,77.84)">
    <path fill="none" d="M2.26,1.09 L-3.59,0.59 1.34,-1.68 " class="primitive"/>
  </g>
  <g transform="translate(78.18,86.71)">
    <path fill="none" d="M0.18,-1.93 L2.55,1.88 -2.73,0.04 " class="primitive"/>
  </g>
  <g transform="translate(105.98,22.18)">
    <path fill="none" d="M-2.26,-1.09 L3.59,-0.59 -1.34,1.68 " class="primitive"/>
  </g>
  <g transform="translate(23.7,72.73)">
    <path fill="none" d="M1.53,-1.6 L0.86,2.54 -2.39,-0.94 " class="primitive"/>
  </g>
  <g transform="translate(75.59,89.73)">
    <path fill="none" d="M-1.2,-1.74 L3.54,0.74 -2.34,1 " class="primitive"/>
  </g>
  <g transform="translate(108.32,25.29)">
    <path fill="none" d="M-2.72,-0.16 L2.7,-1.78 0.02,1.93 " class="primitive"/>
  </g>
</g>
<g font-size="4" stroke="#000000" stroke-opacity="0.000" fill="#000000" id="img-9bee94d6-3">
</g>
<g stroke-width="0" stroke="#000000" stroke-opacity="0.000" fill="#40E0D0" id="img-9bee94d6-4">
  <g transform="translate(129.64,62.28)">
    <circle cx="0" cy="0" r="5.77" class="primitive"/>
  </g>
  <g transform="translate(84.9,91.67)">
    <circle cx="0" cy="0" r="5.77" class="primitive"/>
  </g>
  <g transform="translate(115.43,20.61)">
    <circle cx="0" cy="0" r="5.77" class="primitive"/>
  </g>
  <g transform="translate(56.51,8.33)">
    <circle cx="0" cy="0" r="5.77" class="primitive"/>
  </g>
  <g transform="translate(11.79,37.73)">
    <circle cx="0" cy="0" r="5.77" class="primitive"/>
  </g>
  <g transform="translate(25.97,79.4)">
    <circle cx="0" cy="0" r="5.77" class="primitive"/>
  </g>
</g>
<g font-size="4" stroke="#000000" stroke-opacity="0.000" fill="#000000" id="img-9bee94d6-5">
  <g transform="translate(129.64,62.28)">
    <g class="primitive">
      <text text-anchor="middle" dy="0.35em">ToGPU()</text>
    </g>
  </g>
  <g transform="translate(84.9,91.67)">
    <g class="primitive">
      <text text-anchor="middle" dy="0.35em">ProgressPrinter()</text>
    </g>
  </g>
  <g transform="translate(115.43,20.61)">
    <g class="primitive">
      <text text-anchor="middle" dy="0.35em">MetricsPrinter()</text>
    </g>
  </g>
  <g transform="translate(56.51,8.33)">
    <g class="primitive">
      <text text-anchor="middle" dy="0.35em">StopOnNaNLoss()</text>
    </g>
  </g>
  <g transform="translate(11.79,37.73)">
    <g class="primitive">
      <text text-anchor="middle" dy="0.35em">Recorder()</text>
    </g>
  </g>
  <g transform="translate(25.97,79.4)">
    <g class="primitive">
      <text text-anchor="middle" dy="0.35em">Metrics(Loss())</text>
    </g>
  </g>
</g>
</svg>
