<?xml version="1.0" encoding="UTF-8"?>
<svg xmlns="http://www.w3.org/2000/svg"
     xmlns:xlink="http://www.w3.org/1999/xlink"
     version="1.2"
     width="141.42mm" height="100mm" viewBox="0 0 141.42 100"
     stroke="none"
     fill="#000000"
     stroke-width="0.3"
     font-size="3.88"
>
<defs>
  <marker id="arrow" markerWidth="15" markerHeight="7" refX="5" refY="3.5" orient="auto" markerUnits="strokeWidth">
    <path d="M0,0 L15,3.5 L0,7 z" stroke="context-stroke" fill="context-stroke"/>
  </marker>
</defs>
<g stroke-width="1.34" fill="#000000" fill-opacity="0.000" stroke="#D3D3D3" id="img-bd1d3e49-1">
  <g transform="translate(24.4,66.56)">
    <path fill="none" d="M-10.41,-20.71 L 10.41 20.71" class="primitive"/>
  </g>
  <g transform="translate(70.71,39.76)">
    <path fill="none" d="M-52.34,1.51 L 52.34 -1.51" class="primitive"/>
  </g>
  <g transform="translate(119.74,63.81)">
    <path fill="none" d="M8.17,-21.25 L -8.17 21.25" class="primitive"/>
  </g>
</g>
<g stroke-width="1.34" stroke="#D3D3D3" id="img-bd1d3e49-2">
  <g transform="translate(33.57,84.82)">
    <path fill="none" d="M1.28,-1.71 L 1.24 2.46 -2.52 -0.75" class="primitive"/>
  </g>
  <g transform="translate(119.37,38.35)">
    <path fill="none" d="M-1.93,-1.37 L 3.69 -0.11 -1.76 1.48" class="primitive"/>
  </g>
  <g transform="translate(112.54,82.54)">
    <path fill="none" d="M2.43,-0.89 L -0.97 2.52 -1.46 -1.63" class="primitive"/>
  </g>
</g>
<g font-size="4" stroke="#000000" stroke-opacity="0.000" fill="#000000" id="img-bd1d3e49-3">
</g>
<g stroke-width="0" stroke="#000000" stroke-opacity="0.000" fill="#40E0D0" id="img-bd1d3e49-4">
  <g transform="translate(11.79,41.46)">
    <circle cx="0" cy="0" r="6.32" class="primitive"/>
  </g>
  <g transform="translate(109.85,89.56)">
    <circle cx="0" cy="0" r="6.32" class="primitive"/>
  </g>
  <g transform="translate(69.02,8.33)">
    <circle cx="0" cy="0" r="6.32" class="primitive"/>
  </g>
  <g transform="translate(37.02,91.67)">
    <circle cx="0" cy="0" r="6.32" class="primitive"/>
  </g>
  <g transform="translate(129.64,38.06)">
    <circle cx="0" cy="0" r="6.32" class="primitive"/>
  </g>
</g>
<g font-size="4" stroke="#000000" stroke-opacity="0.000" fill="#000000" id="img-bd1d3e49-5">
  <g transform="translate(11.79,41.46)">
    <g class="primitive">
      <text text-anchor="middle" dy="0.35em">ToGPU()</text>
    </g>
  </g>
  <g transform="translate(109.85,89.56)">
    <g class="primitive">
      <text text-anchor="middle" dy="0.35em">ProgressBarLogger()</text>
    </g>
  </g>
  <g transform="translate(69.02,8.33)">
    <g class="primitive">
      <text text-anchor="middle" dy="0.35em">MetricsPrinter()</text>
    </g>
  </g>
  <g transform="translate(37.02,91.67)">
    <g class="primitive">
      <text text-anchor="middle" dy="0.35em">StopOnNaNLoss()</text>
    </g>
  </g>
  <g transform="translate(129.64,38.06)">
    <g class="primitive">
      <text text-anchor="middle" dy="0.35em">Recorder()</text>
    </g>
  </g>
</g>
</svg>
