<?xml version="1.0" encoding="UTF-8"?>
<svg xmlns="http://www.w3.org/2000/svg"
     xmlns:xlink="http://www.w3.org/1999/xlink"
     version="1.2"
     width="141.42mm" height="100mm" viewBox="0 0 141.42 100"
     stroke="none"
     fill="#000000"
     stroke-width="0.3"
     font-size="3.88"
>
<defs>
  <marker id="arrow" markerWidth="15" markerHeight="7" refX="5" refY="3.5" orient="auto" markerUnits="strokeWidth">
    <path d="M0,0 L15,3.5 L0,7 z" stroke="context-stroke" fill="context-stroke"/>
  </marker>
</defs>
<g stroke-width="1.22" fill="#000000" fill-opacity="0.000" stroke="#D3D3D3" id="img-187d0a0f-1">
  <g transform="translate(52.65,32.08)">
    <path fill="none" d="M36.22,-21.04 L -36.22 21.04" class="primitive"/>
  </g>
  <g transform="translate(100.17,47.09)">
    <path fill="none" d="M-5.92,-34.53 L 5.92 34.53" class="primitive"/>
  </g>
  <g transform="translate(111.58,26.25)">
    <path fill="none" d="M-14.57,-14.46 L 14.57 14.46" class="primitive"/>
  </g>
  <g transform="translate(70.7,49.99)">
    <path fill="none" d="M32.61,32.38 L -32.61 -32.38" class="primitive"/>
  </g>
  <g transform="translate(77.34,88.75)">
    <path fill="none" d="M23.5,-2.32 L -23.5 2.32" class="primitive"/>
  </g>
  <g transform="translate(118.22,65.01)">
    <path fill="none" d="M-9.24,16.87 L 9.24 -16.87" class="primitive"/>
  </g>
  <g transform="translate(82.12,29.16)">
    <path fill="none" d="M42.03,13.28 L -42.03 -13.28" class="primitive"/>
  </g>
  <g transform="translate(88.76,67.92)">
    <path fill="none" d="M36.23,-21.05 L -36.23 21.05" class="primitive"/>
  </g>
</g>
<g stroke-width="1.22" stroke="#D3D3D3" id="img-187d0a0f-2">
  <g transform="translate(19.28,51.46)">
    <path fill="none" d="M2.71,0.27 L -2.85 1.66 0.15 -1.93" class="primitive"/>
  </g>
  <g transform="translate(105.64,79.03)">
    <path fill="none" d="M1.78,-1.47 L 0.44 2.59 -2.22 -1.12" class="primitive"/>
  </g>
  <g transform="translate(124,38.58)">
    <path fill="none" d="M0.57,-1.89 L 2.14 2.13 -2.71 -0.24" class="primitive"/>
  </g>
  <g transform="translate(40.23,19.74)">
    <path fill="none" d="M-0.57,1.89 L -2.14 -2.13 2.71 0.24" class="primitive"/>
  </g>
  <g transform="translate(57.5,90.72)">
    <path fill="none" d="M2.11,1.23 L -3.66 0.36 1.55 -1.59" class="primitive"/>
  </g>
  <g transform="translate(126.13,50.57)">
    <path fill="none" d="M-2.55,0.7 L 1.33 -2.43 1.21 1.73" class="primitive"/>
  </g>
  <g transform="translate(43.46,16.95)">
    <path fill="none" d="M0.86,1.83 L -3.37 -1.06 2.51 -0.77" class="primitive"/>
  </g>
  <g transform="translate(55.38,87.31)">
    <path fill="none" d="M2.71,0.27 L -2.85 1.66 0.15 -1.93" class="primitive"/>
  </g>
</g>
<g font-size="4" stroke="#000000" stroke-opacity="0.000" fill="#000000" id="img-187d0a0f-3">
</g>
<g stroke-width="0" stroke="#000000" stroke-opacity="0.000" fill="#40E0D0" id="img-187d0a0f-4">
  <g transform="translate(93.52,8.33)">
    <circle cx="0" cy="0" r="5.77" class="primitive"/>
  </g>
  <g transform="translate(34.6,14.15)">
    <circle cx="0" cy="0" r="5.77" class="primitive"/>
  </g>
  <g transform="translate(47.88,91.67)">
    <circle cx="0" cy="0" r="5.77" class="primitive"/>
  </g>
  <g transform="translate(11.79,55.82)">
    <circle cx="0" cy="0" r="5.77" class="primitive"/>
  </g>
  <g transform="translate(106.81,85.84)">
    <circle cx="0" cy="0" r="5.77" class="primitive"/>
  </g>
  <g transform="translate(129.64,44.17)">
    <circle cx="0" cy="0" r="5.77" class="primitive"/>
  </g>
</g>
<g font-size="4" stroke="#000000" stroke-opacity="0.000" fill="#000000" id="img-187d0a0f-5">
  <g transform="translate(93.52,8.33)">
    <g class="primitive">
      <text text-anchor="middle" dy="0.35em">ToGPU()</text>
    </g>
  </g>
  <g transform="translate(34.6,14.15)">
    <g class="primitive">
      <text text-anchor="middle" dy="0.35em">ProgressPrinter()</text>
    </g>
  </g>
  <g transform="translate(47.88,91.67)">
    <g class="primitive">
      <text text-anchor="middle" dy="0.35em">MetricsPrinter()</text>
    </g>
  </g>
  <g transform="translate(11.79,55.82)">
    <g class="primitive">
      <text text-anchor="middle" dy="0.35em">StopOnNaNLoss()</text>
    </g>
  </g>
  <g transform="translate(106.81,85.84)">
    <g class="primitive">
      <text text-anchor="middle" dy="0.35em">Recorder()</text>
    </g>
  </g>
  <g transform="translate(129.64,44.17)">
    <g class="primitive">
      <text text-anchor="middle" dy="0.35em">Metrics(Loss())</text>
    </g>
  </g>
</g>
</svg>
