<?xml version="1.0" encoding="UTF-8"?>
<svg xmlns="http://www.w3.org/2000/svg"
     xmlns:xlink="http://www.w3.org/1999/xlink"
     version="1.2"
     width="141.42mm" height="100mm" viewBox="0 0 141.42 100"
     stroke="none"
     fill="#000000"
     stroke-width="0.3"
     font-size="3.88"
>
<defs>
  <marker id="arrow" markerWidth="15" markerHeight="7" refX="5" refY="3.5" orient="auto" markerUnits="strokeWidth">
    <path d="M0,0 L15,3.5 L0,7 z" stroke="context-stroke" fill="context-stroke"/>
  </marker>
</defs>
<g stroke-width="1.22" fill="#000000" fill-opacity="0.000" stroke="#D3D3D3" id="img-67acd1bd-1">
  <g transform="translate(66.8,89.89)">
    <path fill="none" d="M-23.47,-1.41 L 23.47 1.41" class="primitive"/>
  </g>
  <g transform="translate(83.49,70.83)">
    <path fill="none" d="M-40.84,15.3 L 40.84 -15.3" class="primitive"/>
  </g>
  <g transform="translate(24.56,67.29)">
    <path fill="none" d="M10.38,16.93 L -10.38 -16.93" class="primitive"/>
  </g>
  <g transform="translate(87.41,30.93)">
    <path fill="none" d="M37.43,20.03 L -37.43 -20.03" class="primitive"/>
  </g>
  <g transform="translate(116.87,32.7)">
    <path fill="none" d="M10.37,16.93 L -10.37 -16.93" class="primitive"/>
  </g>
  <g transform="translate(70.71,50)">
    <path fill="none" d="M52.93,3.18 L -52.93 -3.18" class="primitive"/>
  </g>
  <g transform="translate(28.48,27.39)">
    <path fill="none" d="M-13.53,15.45 L 13.53 -15.45" class="primitive"/>
  </g>
  <g transform="translate(57.95,29.16)">
    <path fill="none" d="M-40.85,15.3 L 40.85 -15.3" class="primitive"/>
  </g>
</g>
<g stroke-width="1.22" stroke="#D3D3D3" id="img-67acd1bd-2">
  <g transform="translate(86.59,91.08)">
    <path fill="none" d="M-1.67,-1.53 L 3.68 0.22 -2.01 1.31" class="primitive"/>
  </g>
  <g transform="translate(121.06,56.75)">
    <path fill="none" d="M-2.57,-0.65 L 3.26 -1.22 -0.69 1.87" class="primitive"/>
  </g>
  <g transform="translate(15.65,52.75)">
    <path fill="none" d="M-1.11,1.76 L -1.47 -2.39 2.58 0.63" class="primitive"/>
  </g>
  <g transform="translate(52.92,12.48)">
    <path fill="none" d="M0.26,1.92 L -2.94 -1.58 2.69 -0.35" class="primitive"/>
  </g>
  <g transform="translate(107.96,18.16)">
    <path fill="none" d="M-1.12,1.76 L -1.47 -2.4 2.58 0.63" class="primitive"/>
  </g>
  <g transform="translate(21.46,47.04)">
    <path fill="none" d="M1.67,1.53 L -3.68 -0.22 2.01 -1.31" class="primitive"/>
  </g>
  <g transform="translate(40.07,14.17)">
    <path fill="none" d="M-2.69,0.36 L 1.94 -2.22 0.74 1.86" class="primitive"/>
  </g>
  <g transform="translate(95.53,15.08)">
    <path fill="none" d="M-2.57,-0.65 L 3.26 -1.22 -0.69 1.87" class="primitive"/>
  </g>
</g>
<g font-size="4" stroke="#000000" stroke-opacity="0.000" fill="#000000" id="img-67acd1bd-3">
</g>
<g stroke-width="0" stroke="#000000" stroke-opacity="0.000" fill="#40E0D0" id="img-67acd1bd-4">
  <g transform="translate(37.33,88.12)">
    <circle cx="0" cy="0" r="5.77" class="primitive"/>
  </g>
  <g transform="translate(45.18,8.33)">
    <circle cx="0" cy="0" r="5.77" class="primitive"/>
  </g>
  <g transform="translate(104.11,11.87)">
    <circle cx="0" cy="0" r="5.77" class="primitive"/>
  </g>
  <g transform="translate(96.26,91.67)">
    <circle cx="0" cy="0" r="5.77" class="primitive"/>
  </g>
  <g transform="translate(129.64,53.54)">
    <circle cx="0" cy="0" r="5.77" class="primitive"/>
  </g>
  <g transform="translate(11.79,46.46)">
    <circle cx="0" cy="0" r="5.77" class="primitive"/>
  </g>
</g>
<g font-size="4" stroke="#000000" stroke-opacity="0.000" fill="#000000" id="img-67acd1bd-5">
  <g transform="translate(37.33,88.12)">
    <g class="primitive">
      <text text-anchor="middle" dy="0.35em">ToGPU()</text>
    </g>
  </g>
  <g transform="translate(45.18,8.33)">
    <g class="primitive">
      <text text-anchor="middle" dy="0.35em">ProgressPrinter()</text>
    </g>
  </g>
  <g transform="translate(104.11,11.87)">
    <g class="primitive">
      <text text-anchor="middle" dy="0.35em">MetricsPrinter()</text>
    </g>
  </g>
  <g transform="translate(96.26,91.67)">
    <g class="primitive">
      <text text-anchor="middle" dy="0.35em">StopOnNaNLoss()</text>
    </g>
  </g>
  <g transform="translate(129.64,53.54)">
    <g class="primitive">
      <text text-anchor="middle" dy="0.35em">Recorder()</text>
    </g>
  </g>
  <g transform="translate(11.79,46.46)">
    <g class="primitive">
      <text text-anchor="middle" dy="0.35em">Metrics(Loss())</text>
    </g>
  </g>
</g>
</svg>
