<?xml version="1.0" encoding="UTF-8"?>
<svg xmlns="http://www.w3.org/2000/svg"
     xmlns:xlink="http://www.w3.org/1999/xlink"
     version="1.2"
     width="141.42mm" height="100mm" viewBox="0 0 141.42 100"
     stroke="none"
     fill="#000000"
     stroke-width="0.3"
     font-size="3.88"
>
<defs>
  <marker id="arrow" markerWidth="15" markerHeight="7" refX="5" refY="3.5" orient="auto" markerUnits="strokeWidth">
    <path d="M0,0 L15,3.5 L0,7 z" stroke="context-stroke" fill="context-stroke"/>
  </marker>
</defs>
<g stroke-width="1.22" fill="#000000" fill-opacity="0.000" stroke="#D3D3D3" id="img-fde51322-1">
  <g transform="translate(118.62,35.65)">
    <path fill="none" d="M8.91,16.85 L-8.91,-16.85 " class="primitive"/>
  </g>
  <g transform="translate(111.18,74.07)">
    <path fill="none" d="M14.87,-14.18 L-14.87,14.18 " class="primitive"/>
  </g>
  <g transform="translate(70.71,50)">
    <path fill="none" d="M52.98,5.82 L-52.98,-5.82 " class="primitive"/>
  </g>
  <g transform="translate(63.26,88.43)">
    <path fill="none" d="M23.52,2.58 L-23.52,-2.58 " class="primitive"/>
  </g>
  <g transform="translate(70.7,50)">
    <path fill="none" d="M19.91,37.68 L-19.91,-37.68 " class="primitive"/>
  </g>
  <g transform="translate(52.25,67.6)">
    <path fill="none" d="M35.87,21.33 L-35.87,-21.33 " class="primitive"/>
  </g>
  <g transform="translate(22.79,64.37)">
    <path fill="none" d="M-8.9,-16.85 L8.9,16.85 " class="primitive"/>
  </g>
  <g transform="translate(30.23,25.93)">
    <path fill="none" d="M-14.87,14.18 L14.87,-14.18 " class="primitive"/>
  </g>
</g>
<g stroke-width="1.22" stroke="#D3D3D3" id="img-fde51322-2">
  <g transform="translate(111.01,21.24)">
    <path fill="none" d="M-1.24,1.72 L-1.29,-2.44 2.53,0.72 " class="primitive"/>
  </g>
  <g transform="translate(98.5,86.15)">
    <path fill="none" d="M2.72,-0.2 L-2.2,2.1 -0.52,-1.9 " class="primitive"/>
  </g>
  <g transform="translate(21.38,44.59)">
    <path fill="none" d="M1.51,1.61 L-3.65,-0.4 2.13,-1.21 " class="primitive"/>
  </g>
  <g transform="translate(43.39,86.25)">
    <path fill="none" d="M1.51,1.61 L-3.65,-0.4 2.13,-1.21 " class="primitive"/>
  </g>
  <g transform="translate(52.08,14.76)">
    <path fill="none" d="M-1.24,1.72 L-1.29,-2.45 2.53,0.72 " class="primitive"/>
  </g>
  <g transform="translate(19.21,47.95)">
    <path fill="none" d="M0.12,1.93 L-2.83,-1.68 2.71,-0.25 " class="primitive"/>
  </g>
  <g transform="translate(30.4,78.77)">
    <path fill="none" d="M1.24,-1.72 L1.29,2.45 -2.53,-0.72 " class="primitive"/>
  </g>
  <g transform="translate(42.9,13.85)">
    <path fill="none" d="M-2.72,0.2 L2.2,-2.1 0.52,1.9 " class="primitive"/>
  </g>
</g>
<g font-size="4" stroke="#000000" stroke-opacity="0.000" fill="#000000" id="img-fde51322-3">
</g>
<g stroke-width="0" stroke="#000000" stroke-opacity="0.000" fill="#40E0D0" id="img-fde51322-4">
  <g transform="translate(129.64,56.48)">
    <circle cx="0" cy="0" r="5.77" class="primitive"/>
  </g>
  <g transform="translate(33.79,85.2)">
    <circle cx="0" cy="0" r="5.77" class="primitive"/>
  </g>
  <g transform="translate(48.68,8.33)">
    <circle cx="0" cy="0" r="5.77" class="primitive"/>
  </g>
  <g transform="translate(107.61,14.81)">
    <circle cx="0" cy="0" r="5.77" class="primitive"/>
  </g>
  <g transform="translate(92.72,91.67)">
    <circle cx="0" cy="0" r="5.77" class="primitive"/>
  </g>
  <g transform="translate(11.79,43.53)">
    <circle cx="0" cy="0" r="5.77" class="primitive"/>
  </g>
</g>
<g font-size="4" stroke="#000000" stroke-opacity="0.000" fill="#000000" id="img-fde51322-5">
  <g transform="translate(129.64,56.48)">
    <g class="primitive">
      <text text-anchor="middle" dy="0.35em">ToGPU()</text>
    </g>
  </g>
  <g transform="translate(33.79,85.2)">
    <g class="primitive">
      <text text-anchor="middle" dy="0.35em">ProgressPrinter()</text>
    </g>
  </g>
  <g transform="translate(48.68,8.33)">
    <g class="primitive">
      <text text-anchor="middle" dy="0.35em">MetricsPrinter()</text>
    </g>
  </g>
  <g transform="translate(107.61,14.81)">
    <g class="primitive">
      <text text-anchor="middle" dy="0.35em">StopOnNaNLoss()</text>
    </g>
  </g>
  <g transform="translate(92.72,91.67)">
    <g class="primitive">
      <text text-anchor="middle" dy="0.35em">Recorder()</text>
    </g>
  </g>
  <g transform="translate(11.79,43.53)">
    <g class="primitive">
      <text text-anchor="middle" dy="0.35em">Metrics(Loss())</text>
    </g>
  </g>
</g>
</svg>
