<?xml version="1.0" encoding="UTF-8"?>
<svg xmlns="http://www.w3.org/2000/svg"
     xmlns:xlink="http://www.w3.org/1999/xlink"
     version="1.2"
     width="141.42mm" height="100mm" viewBox="0 0 141.42 100"
     stroke="none"
     fill="#000000"
     stroke-width="0.3"
     font-size="3.88"
>
<defs>
  <marker id="arrow" markerWidth="15" markerHeight="7" refX="5" refY="3.5" orient="auto" markerUnits="strokeWidth">
    <path d="M0,0 L15,3.5 L0,7 z" stroke="context-stroke" fill="context-stroke"/>
  </marker>
</defs>
<g stroke-width="1.13" fill="#000000" fill-opacity="0.000" stroke="#D3D3D3" id="img-0b622a95-1">
  <g transform="translate(61.91,70.85)">
    <path fill="none" d="M44.8,9.78 L-44.8,-9.78 " class="primitive"/>
  </g>
  <g transform="translate(91.36,65.87)">
    <path fill="none" d="M16.91,13.02 L-16.91,-13.02 " class="primitive"/>
  </g>
  <g transform="translate(70.68,50.01)">
    <path fill="none" d="M37.58,28.89 L-37.58,-28.89 " class="primitive"/>
  </g>
  <g transform="translate(82.59,86.73)">
    <path fill="none" d="M24.02,-4.03 L-24.02,4.03 " class="primitive"/>
  </g>
  <g transform="translate(79.49,29.14)">
    <path fill="none" d="M-7.21,17.04 L7.21,-17.04 " class="primitive"/>
  </g>
  <g transform="translate(100.16,45.05)">
    <path fill="none" d="M-24.05,4 L24.05,-4 " class="primitive"/>
  </g>
  <g transform="translate(50.01,34.09)">
    <path fill="none" d="M16.91,12.97 L-16.91,-12.97 " class="primitive"/>
  </g>
  <g transform="translate(58.81,13.28)">
    <path fill="none" d="M-24.07,4.04 L24.07,-4.04 " class="primitive"/>
  </g>
  <g transform="translate(79.48,29.18)">
    <path fill="none" d="M-44.83,-9.8 L44.83,9.8 " class="primitive"/>
  </g>
</g>
<g stroke-width="1.13" stroke="#D3D3D3" id="img-0b622a95-2">
  <g transform="translate(20.63,61.84)">
    <path fill="none" d="M1.17,1.75 L-3.53,-0.77 2.36,-0.98 " class="primitive"/>
  </g>
  <g transform="translate(76.95,54.78)">
    <path fill="none" d="M-0.24,1.93 L-2.5,-1.92 2.73,-0 " class="primitive"/>
  </g>
  <g transform="translate(35.6,23.04)">
    <path fill="none" d="M-0.23,1.93 L-2.5,-1.92 2.73,-0 " class="primitive"/>
  </g>
  <g transform="translate(62.16,90.16)">
    <path fill="none" d="M2.26,1.09 L-3.59,0.6 1.33,-1.69 " class="primitive"/>
  </g>
  <g transform="translate(85.64,14.61)">
    <path fill="none" d="M-2.46,0.84 L1.06,-2.5 1.4,1.66 " class="primitive"/>
  </g>
  <g transform="translate(120.62,41.65)">
    <path fill="none" d="M-2.26,-1.09 L3.59,-0.6 -1.34,1.69 " class="primitive"/>
  </g>
  <g transform="translate(35.61,23.04)">
    <path fill="none" d="M-0.23,1.93 L-2.5,-1.92 2.73,-0.01 " class="primitive"/>
  </g>
  <g transform="translate(79.29,9.84)">
    <path fill="none" d="M-2.26,-1.09 L3.59,-0.6 -1.33,1.69 " class="primitive"/>
  </g>
  <g transform="translate(120.79,38.22)">
    <path fill="none" d="M-1.17,-1.75 L3.53,0.77 -2.36,0.98 " class="primitive"/>
  </g>
</g>
<g font-size="4" stroke="#000000" stroke-opacity="0.000" fill="#000000" id="img-0b622a95-3">
</g>
<g stroke-width="0" stroke="#000000" stroke-opacity="0.000" fill="#40E0D0" id="img-0b622a95-4">
  <g transform="translate(112.03,81.79)">
    <circle cx="0" cy="0" r="5.35" class="primitive"/>
  </g>
  <g transform="translate(88.3,8.33)">
    <circle cx="0" cy="0" r="5.35" class="primitive"/>
  </g>
  <g transform="translate(129.64,40.15)">
    <circle cx="0" cy="0" r="5.35" class="primitive"/>
  </g>
  <g transform="translate(11.79,59.91)">
    <circle cx="0" cy="0" r="5.35" class="primitive"/>
  </g>
  <g transform="translate(70.69,49.96)">
    <circle cx="0" cy="0" r="5.35" class="primitive"/>
  </g>
  <g transform="translate(29.33,18.22)">
    <circle cx="0" cy="0" r="5.35" class="primitive"/>
  </g>
  <g transform="translate(53.15,91.67)">
    <circle cx="0" cy="0" r="5.35" class="primitive"/>
  </g>
</g>
<g font-size="4" stroke="#000000" stroke-opacity="0.000" fill="#000000" id="img-0b622a95-5">
  <g transform="translate(112.03,81.79)">
    <g class="primitive">
      <text text-anchor="middle" dy="0.35em">ToGPU()</text>
    </g>
  </g>
  <g transform="translate(88.3,8.33)">
    <g class="primitive">
      <text text-anchor="middle" dy="0.35em">ProgressPrinter()</text>
    </g>
  </g>
  <g transform="translate(129.64,40.15)">
    <g class="primitive">
      <text text-anchor="middle" dy="0.35em">MetricsPrinter()</text>
    </g>
  </g>
  <g transform="translate(11.79,59.91)">
    <g class="primitive">
      <text text-anchor="middle" dy="0.35em">StopOnNaNLoss()</text>
    </g>
  </g>
  <g transform="translate(70.69,49.96)">
    <g class="primitive">
      <text text-anchor="middle" dy="0.35em">Recorder()</text>
    </g>
  </g>
  <g transform="translate(29.33,18.22)">
    <g class="primitive">
      <text text-anchor="middle" dy="0.35em">Metrics(Loss())</text>
    </g>
  </g>
  <g transform="translate(53.15,91.67)">
    <g class="primitive">
      <text text-anchor="middle" dy="0.35em">SanityCheck(FluxTraining.Check[Check("Has training data iterator"), Check("Has validation data iterator"), Check("Data iterators iterate over tuples"), Check("Model and loss function compatible with data")])</text>
    </g>
  </g>
</g>
</svg>
